<svg width="43" height="42" viewBox="0 0 43 42" fill="none" xmlns="http://www.w3.org/2000/svg">
<path d="M21.6674 41.6937C17.5746 41.6937 13.5736 40.48 10.1706 38.2061C6.76749 35.9323 4.11512 32.7004 2.54886 28.9191C0.982599 25.1378 0.572794 20.977 1.37127 16.9628C2.16974 12.9486 4.14063 9.26129 7.0347 6.36722C9.92877 3.47315 13.616 1.50226 17.6302 0.703786C21.6444 -0.0946867 25.8053 0.315119 29.5865 1.88138C33.3678 3.44764 36.5998 6.10001 38.8736 9.50308C41.1475 12.9061 42.3611 16.9071 42.3611 20.9999C42.3551 26.4864 40.1729 31.7464 36.2934 35.6259C32.4139 39.5054 27.1539 41.6876 21.6674 41.6937ZM21.6674 2.38949C17.9866 2.38949 14.3885 3.48098 11.328 5.52592C8.26753 7.57086 5.88219 10.4774 4.47361 13.878C3.06503 17.2786 2.69648 21.0206 3.41457 24.6306C4.13266 28.2407 5.90513 31.5567 8.50784 34.1595C11.1106 36.7622 14.4266 38.5346 18.0367 39.2527C21.6467 39.9708 25.3887 39.6023 28.7893 38.1937C32.1899 36.7851 35.0965 34.3998 37.1414 31.3393C39.1863 28.2788 40.2778 24.6807 40.2778 20.9999C40.2723 16.0658 38.3098 11.3354 34.8209 7.84645C31.3319 4.35751 26.6015 2.39501 21.6674 2.38949Z" fill="#4AB969"/>
<path d="M20.626 8.49992C20.626 8.22365 20.7357 7.9587 20.9311 7.76335C21.1264 7.568 21.3914 7.45825 21.6676 7.45825C21.9439 7.45825 22.2089 7.568 22.4042 7.76335C22.5996 7.9587 22.7093 8.22365 22.7093 8.49992V18.4999C25.0635 16.1458 27.4176 13.7708 29.7718 11.4166C29.968 11.2204 30.234 11.1102 30.5114 11.1102C30.7888 11.1102 31.0548 11.2204 31.251 11.4166C31.4471 11.6127 31.5573 11.8788 31.5573 12.1562C31.5573 12.4336 31.4471 12.6996 31.251 12.8958L22.376 21.7499C22.222 21.9094 22.0178 22.0109 21.7977 22.0375C21.5776 22.064 21.3551 22.014 21.1676 21.8958C21.1468 21.8541 21.126 21.8541 21.1051 21.8541C20.9786 21.7854 20.8707 21.6869 20.7909 21.5671C20.711 21.4473 20.6616 21.3098 20.6468 21.1666L20.626 8.49992Z" fill="#4AB969"/>
</svg>
