<svg width="42" height="34" viewBox="0 0 42 34" fill="none" xmlns="http://www.w3.org/2000/svg">
<path d="M36.4893 0.46875H5.51009C4.12876 0.46875 2.804 1.01748 1.82724 1.99424C0.850491 2.97099 0.301758 4.29575 0.301758 5.67708V28.3229C0.301758 29.7042 0.850491 31.029 1.82724 32.0058C2.804 32.9825 4.12876 33.5312 5.51009 33.5312H36.4893C37.8706 33.5312 39.1954 32.9825 40.1721 32.0058C41.1489 31.029 41.6976 29.7042 41.6976 28.3229V5.67708C41.6976 4.29575 41.1489 2.97099 40.1721 1.99424C39.1954 1.01748 37.8706 0.46875 36.4893 0.46875ZM39.6143 21.1562H26.2393C25.1342 21.1562 24.0744 20.7173 23.293 19.9359C22.5116 19.1545 22.0726 18.0947 22.0726 16.9896C22.0726 15.8845 22.5116 14.8247 23.293 14.0433C24.0744 13.2619 25.1342 12.8229 26.2393 12.8229H39.6143V21.1562ZM26.2393 10.7396C24.5817 10.7396 22.9919 11.3981 21.8198 12.5702C20.6477 13.7423 19.9893 15.332 19.9893 16.9896C19.9893 18.6472 20.6477 20.2369 21.8198 21.409C22.9919 22.5811 24.5817 23.2396 26.2393 23.2396H39.6143V28.3229C39.6143 29.1517 39.285 29.9466 38.699 30.5326C38.1129 31.1187 37.3181 31.4479 36.4893 31.4479H5.51009C4.68129 31.4479 3.88643 31.1187 3.30038 30.5326C2.71433 29.9466 2.38509 29.1517 2.38509 28.3229V5.67708C2.38509 4.84828 2.71433 4.05343 3.30038 3.46737C3.88643 2.88132 4.68129 2.55208 5.51009 2.55208H36.4893C37.3181 2.55208 38.1129 2.88132 38.699 3.46737C39.285 4.05343 39.6143 4.84828 39.6143 5.67708V10.7396H26.2393Z" fill="#4AB969"/>
<path d="M26.2474 19.0751C27.398 19.0751 28.3307 18.1424 28.3307 16.9918C28.3307 15.8412 27.398 14.9084 26.2474 14.9084C25.0968 14.9084 24.1641 15.8412 24.1641 16.9918C24.1641 18.1424 25.0968 19.0751 26.2474 19.0751Z" fill="#4AB969"/>
</svg>
