<svg width="42" height="42" viewBox="0 0 42 42" fill="none" xmlns="http://www.w3.org/2000/svg">
<path d="M21.0003 41.7355C19.1357 41.7355 17.7816 40.1876 16.5878 38.8188C16.0036 38.0298 15.2729 37.3607 14.4357 36.848C13.4378 36.5965 12.4004 36.542 11.3816 36.6876C10.5159 36.8824 9.61873 36.8914 8.74931 36.714C7.87989 36.5366 7.05798 36.1768 6.33782 35.6584C5.81966 34.9381 5.46002 34.1162 5.28263 33.2468C5.10524 32.3775 5.11411 31.4804 5.30866 30.6147C5.45315 29.5958 5.39867 28.5586 5.14824 27.5605C4.63551 26.7233 3.96639 25.9926 3.17741 25.4084C1.81283 24.2147 0.260742 22.8626 0.260742 20.9959C0.260742 19.1292 1.80866 17.7772 3.17741 16.5834C3.96698 15.999 4.63619 15.2675 5.14824 14.4292C5.39866 13.4318 5.45314 12.3953 5.30866 11.3772C5.11384 10.5115 5.10483 9.61432 5.28224 8.7449C5.45964 7.87548 5.81942 7.05357 6.33782 6.33341C7.05744 5.81294 7.87925 5.45097 8.74902 5.27142C9.6188 5.09186 10.5168 5.09879 11.3837 5.29175C12.4008 5.44212 13.4375 5.39258 14.4357 5.14591C15.2729 4.63401 16.0036 3.96557 16.5878 3.17716C17.7816 1.81258 19.1357 0.260498 21.0003 0.260498C22.8649 0.260498 24.2191 1.80633 25.4128 3.17716C25.9972 3.96673 26.7287 4.63594 27.567 5.148C28.5637 5.39857 29.5995 5.45305 30.617 5.30841C31.4839 5.11586 32.3818 5.10913 33.2515 5.28867C34.1212 5.46822 34.943 5.82996 35.6628 6.35008C36.1837 7.06952 36.5458 7.89132 36.7254 8.76116C36.905 9.63099 36.8979 10.529 36.7045 11.3959C36.56 12.4134 36.6145 13.4492 36.8649 14.4459C37.377 15.2842 38.0462 16.0157 38.8357 16.6001C40.2003 17.7938 41.7524 19.148 41.7524 21.0126C41.7524 22.8772 40.2045 24.2313 38.8357 25.4251C38.0473 26.0093 37.3789 26.74 36.867 27.5772C36.6166 28.5746 36.5621 29.6111 36.7066 30.6292C36.8999 31.4961 36.9071 32.3942 36.7275 33.264C36.5479 34.1338 36.1857 34.9556 35.6649 35.6751C34.9444 36.1928 34.1225 36.5521 33.2532 36.7295C32.3839 36.9069 31.4869 36.8983 30.6212 36.7042C29.603 36.5599 28.5665 36.6144 27.5691 36.8647C26.7312 37.3773 25.9998 38.0464 25.4149 38.8355C24.2191 40.1876 22.8753 41.7355 21.0003 41.7355ZM12.8607 34.5417C13.6684 34.5118 14.474 34.6414 15.2316 34.923C16.3778 35.5379 17.3738 36.3987 18.1482 37.4438C19.0941 38.5272 20.0732 39.6459 20.992 39.6459C21.9107 39.6459 22.8899 38.5272 23.8378 37.4438C24.6118 36.3984 25.6079 35.5374 26.7545 34.923C28.0397 34.5247 29.3974 34.4165 30.7295 34.6063C32.1295 34.6917 33.5753 34.7834 34.1732 34.1897C34.7712 33.5959 34.6837 32.1438 34.5899 30.7459C34.4013 29.4131 34.5094 28.055 34.9066 26.7688C35.5213 25.6231 36.3814 24.6272 37.4253 23.8522C38.5087 22.9063 39.6274 21.9272 39.6274 21.0084C39.6274 20.0897 38.5087 19.1105 37.4253 18.1647C36.381 17.39 35.5209 16.394 34.9066 15.248C34.5093 13.9625 34.4012 12.6051 34.5899 11.273C34.6753 9.87508 34.7649 8.42925 34.1732 7.82925C33.5816 7.22925 32.1274 7.31675 30.7295 7.41258C29.3973 7.60109 28.04 7.49296 26.7545 7.09591C25.6085 6.48156 24.6125 5.62146 23.8378 4.57716C22.892 3.49383 21.9128 2.37508 20.9941 2.37508C20.0753 2.37508 19.0962 3.49383 18.1503 4.57716C17.3753 5.62113 16.3794 6.48117 15.2337 7.09591C13.9471 7.49104 12.5895 7.59914 11.2566 7.41258C9.86074 7.32716 8.41491 7.23758 7.81283 7.82925C7.21074 8.42091 7.30449 9.873 7.39616 11.2709C7.58045 12.5982 7.46948 13.9498 7.07116 15.2292C6.45667 16.3758 5.59575 17.3719 4.55033 18.1459C3.46699 19.0917 2.34824 20.073 2.34824 20.9897C2.34824 21.9063 3.46699 22.8876 4.55033 23.8355C5.59519 24.6102 6.45598 25.6061 7.07116 26.7522C7.46923 28.0389 7.57737 29.3978 7.38783 30.7313C7.30241 32.1313 7.21282 33.5772 7.80449 34.1751C8.39616 34.773 9.84616 34.6855 11.2482 34.5917C11.7878 34.5813 12.3295 34.5417 12.8607 34.5417Z" fill="#4AB969"/>
<path d="M26.2087 24.1251C26.2054 25.2292 25.7653 26.2871 24.9846 27.0677C24.2039 27.8484 23.146 28.2885 22.042 28.2918V30.3959C22.0365 30.6686 21.9244 30.9282 21.7296 31.1191C21.5349 31.3099 21.273 31.4168 21.0003 31.4168C20.8647 31.419 20.7299 31.3942 20.6039 31.344C20.4779 31.2937 20.3631 31.2189 20.2662 31.124C20.1693 31.029 20.0922 30.9158 20.0395 30.7908C19.9867 30.6658 19.9592 30.5316 19.9587 30.3959V28.2918H17.3545C17.0782 28.2918 16.8133 28.182 16.6179 27.9867C16.4226 27.7913 16.3128 27.5264 16.3128 27.2501C16.3128 26.9738 16.4226 26.7089 16.6179 26.5135C16.8133 26.3182 17.0782 26.2084 17.3545 26.2084H22.042C22.5945 26.2084 23.1244 25.9889 23.5151 25.5982C23.9058 25.2075 24.1253 24.6776 24.1253 24.1251C24.1253 23.5726 23.9058 23.0427 23.5151 22.652C23.1244 22.2613 22.5945 22.0418 22.042 22.0418H19.9587C18.8536 22.0418 17.7938 21.6028 17.0124 20.8214C16.231 20.04 15.792 18.9802 15.792 17.8751C15.792 16.77 16.231 15.7102 17.0124 14.9288C17.7938 14.1474 18.8536 13.7084 19.9587 13.7084V11.5272C19.964 11.3965 19.9953 11.2681 20.0507 11.1496C20.1062 11.0311 20.1847 10.9248 20.2816 10.8369C20.3786 10.7491 20.4921 10.6814 20.6155 10.6379C20.7389 10.5944 20.8697 10.5759 21.0003 10.5834C21.2622 10.572 21.518 10.6639 21.7129 10.8392C21.9077 11.0145 22.0259 11.2593 22.042 11.5209V13.7084H24.6462C24.9224 13.7084 25.1874 13.8182 25.3827 14.0135C25.5781 14.2089 25.6878 14.4738 25.6878 14.7501C25.6835 15.025 25.5724 15.2875 25.378 15.4819C25.1835 15.6764 24.9211 15.7875 24.6462 15.7918H19.9587C19.4061 15.7918 18.8762 16.0113 18.4855 16.402C18.0948 16.7927 17.8753 17.3226 17.8753 17.8751C17.8753 18.4276 18.0948 18.9575 18.4855 19.3482C18.8762 19.7389 19.4061 19.9584 19.9587 19.9584H22.042C23.1471 19.9584 24.2069 20.3974 24.9883 21.1788C25.7697 21.9602 26.2087 23.02 26.2087 24.1251Z" fill="#4AB969"/>
</svg>
