<svg width="38" height="38" viewBox="0 0 38 38" fill="none" xmlns="http://www.w3.org/2000/svg">
<path d="M34.3021 31.3812V15.5875C34.9719 15.563 35.6158 15.3226 36.1378 14.902C36.6597 14.4815 37.0316 13.9034 37.1979 13.2541C37.384 12.5917 37.3412 11.886 37.0766 11.2509C36.812 10.6158 36.3409 10.0884 35.7396 9.75412L20.2188 0.795788C19.7448 0.529511 19.2103 0.389648 18.6667 0.389648C18.123 0.389648 17.5885 0.529511 17.1146 0.795788L1.59375 9.75412C0.992411 10.0884 0.521367 10.6158 0.256742 11.2509C-0.00788272 11.886 -0.0506268 12.5917 0.135418 13.2541C0.306136 13.9245 0.696316 14.5184 1.24378 14.9413C1.79125 15.3642 2.4645 15.5916 3.15625 15.5875H3.42708V31.3583H3.17708C2.34828 31.3583 1.55343 31.6875 0.967376 32.2736C0.381325 32.8596 0.0520844 33.6545 0.0520844 34.4833C0.0520844 35.3121 0.381325 36.1069 0.967376 36.693C1.55343 37.279 2.34828 37.6083 3.17708 37.6083H34.1562C34.9392 37.562 35.6761 37.2231 36.2207 36.6588C36.7653 36.0944 37.0778 35.3459 37.0962 34.5619C37.1145 33.7778 36.8374 33.0155 36.3198 32.4263C35.8022 31.8371 35.082 31.464 34.3021 31.3812ZM3.15625 13.5041C2.92663 13.5012 2.70428 13.4232 2.52313 13.2821C2.34197 13.141 2.21196 12.9445 2.15294 12.7225C2.09392 12.5006 2.10913 12.2655 2.19624 12.053C2.28336 11.8405 2.43759 11.6624 2.63542 11.5458L18.1562 2.61037C18.3103 2.51738 18.4868 2.46823 18.6667 2.46823C18.8466 2.46823 19.0231 2.51738 19.1771 2.61037L34.7083 11.5458C34.9145 11.6569 35.0772 11.8342 35.1702 12.0492C35.2632 12.2642 35.2811 12.5042 35.2209 12.7305C35.1607 12.9569 35.026 13.1563 34.8385 13.2967C34.651 13.437 34.4216 13.5101 34.1875 13.5041H3.15625ZM32.2187 15.5875V31.3583H24.7083V15.5875H32.2187ZM22.6146 15.5875V31.3583H15.0938V15.5875H22.6146ZM13.0104 15.5875V31.3583H5.51042V15.5875H13.0104ZM34.1562 35.525H3.17708C2.90082 35.525 2.63587 35.4152 2.44052 35.2199C2.24516 35.0245 2.13542 34.7596 2.13542 34.4833C2.13542 34.207 2.24516 33.9421 2.44052 33.7467C2.63587 33.5514 2.90082 33.4416 3.17708 33.4416H34.1562C34.4325 33.4416 34.6975 33.5514 34.8928 33.7467C35.0882 33.9421 35.1979 34.207 35.1979 34.4833C35.1979 34.7596 35.0882 35.0245 34.8928 35.2199C34.6975 35.4152 34.4325 35.525 34.1562 35.525Z" fill="#4AB969"/>
</svg>
