<svg width="43" height="26" viewBox="0 0 43 26" fill="none" xmlns="http://www.w3.org/2000/svg">
<path d="M36.8333 0.041748H5.83333C4.45318 0.0455963 3.13066 0.595565 2.15474 1.57148C1.17882 2.5474 0.628848 3.86993 0.625 5.25008V20.7501C0.632658 22.1291 1.18385 23.4494 2.15895 24.4245C3.13404 25.3996 4.45436 25.9508 5.83333 25.9584H36.8333C38.2135 25.9546 39.536 25.4046 40.5119 24.4287C41.4879 23.4528 42.0378 22.1302 42.0417 20.7501V5.25008C42.0417 4.56611 41.9069 3.88884 41.6452 3.25694C41.3835 2.62503 40.9998 2.05087 40.5162 1.56723C40.0325 1.0836 39.4584 0.699952 38.8265 0.438208C38.1946 0.176465 37.5173 0.041748 36.8333 0.041748ZM2.70833 5.25008C2.70833 4.42128 3.03757 3.62642 3.62362 3.04037C4.20968 2.45432 5.00453 2.12508 5.83333 2.12508H8.91667C8.68988 3.69108 7.96279 5.14177 6.84391 6.26065C5.72502 7.37954 4.27434 8.10663 2.70833 8.33341V5.25008ZM5.83333 23.8751C5.00639 23.8691 4.21501 23.5379 3.63025 22.9532C3.0455 22.3684 2.71433 21.577 2.70833 20.7501V17.6667C4.27434 17.8935 5.72502 18.6206 6.84391 19.7395C7.96279 20.8584 8.68988 22.3091 8.91667 23.8751H5.83333ZM39.9583 20.7501C39.9583 21.5789 39.6291 22.3737 39.043 22.9598C38.457 23.5458 37.6621 23.8751 36.8333 23.8751H33.75C33.9768 22.3091 34.7039 20.8584 35.8228 19.7395C36.9416 18.6206 38.3923 17.8935 39.9583 17.6667V20.7501ZM39.9583 15.5626C37.8365 15.8028 35.8589 16.7557 34.3489 18.2657C32.839 19.7756 31.886 21.7532 31.6458 23.8751H11.0208C10.7807 21.7532 9.82768 19.7756 8.31773 18.2657C6.80777 16.7557 4.83018 15.8028 2.70833 15.5626V10.4376C4.83018 10.1974 6.80777 9.24443 8.31773 7.73448C9.82768 6.22452 10.7807 4.24693 11.0208 2.12508H31.6458C31.886 4.24693 32.839 6.22452 34.3489 7.73448C35.8589 9.24443 37.8365 10.1974 39.9583 10.4376V15.5626ZM39.9583 8.33341C38.3923 8.10663 36.9416 7.37954 35.8228 6.26065C34.7039 5.14177 33.9768 3.69108 33.75 2.12508H36.8333C37.6621 2.12508 38.457 2.45432 39.043 3.04037C39.6291 3.62642 39.9583 4.42128 39.9583 5.25008V8.33341Z" fill="#4AB969"/>
<path d="M21.3376 17.1627C23.6388 17.1627 25.5042 15.2972 25.5042 12.996C25.5042 10.6948 23.6388 8.82935 21.3376 8.82935C19.0364 8.82935 17.1709 10.6948 17.1709 12.996C17.1709 15.2972 19.0364 17.1627 21.3376 17.1627Z" fill="#4AB969"/>
</svg>
