<svg width="34" height="42" viewBox="0 0 34 42" fill="none" xmlns="http://www.w3.org/2000/svg">
<path d="M28.6626 41.702H6.00423C4.6229 41.702 3.29814 41.1533 2.32138 40.1765C1.34463 39.1998 0.795898 37.875 0.795898 36.4937V34.7708C0.795898 26.502 8.21465 19.7708 17.3334 19.7708C26.4521 19.7708 33.8709 26.4978 33.8709 34.7708V36.4937C33.8709 37.1776 33.7362 37.8549 33.4744 38.4868C33.2127 39.1187 32.829 39.6929 32.3454 40.1765C31.8618 40.6602 31.2876 41.0438 30.6557 41.3055C30.0238 41.5673 29.3465 41.702 28.6626 41.702ZM17.3334 21.8583C9.36257 21.8583 2.87923 27.6499 2.87923 34.7749V36.4978C2.87923 37.3266 3.20847 38.1215 3.79452 38.7075C4.38057 39.2936 5.17543 39.6228 6.00423 39.6228H28.6626C29.4914 39.6228 30.2862 39.2936 30.8723 38.7075C31.4583 38.1215 31.7876 37.3266 31.7876 36.4978V34.7708C31.7876 27.6499 25.3042 21.8583 17.3334 21.8583Z" fill="#4AB969"/>
<path d="M17.3333 16.6479C15.7164 16.6483 14.1356 16.1692 12.791 15.2711C11.4463 14.3731 10.3982 13.0965 9.77914 11.6027C9.16007 10.109 8.99788 8.4652 9.31308 6.87927C9.62828 5.29334 10.4067 3.8365 11.5499 2.69299C12.6931 1.54949 14.1498 0.770691 15.7356 0.455088C17.3215 0.139485 18.9653 0.301256 20.4592 0.919941C21.9531 1.53863 23.23 2.58644 24.1284 3.93085C25.0267 5.27527 25.5063 6.8559 25.5063 8.47285C25.5046 10.6401 24.6431 12.7182 23.1108 14.2509C21.5785 15.7836 19.5006 16.6456 17.3333 16.6479ZM17.3333 2.38327C16.1283 2.38286 14.9503 2.73983 13.9482 3.40903C12.9461 4.07824 12.165 5.0296 11.7037 6.1428C11.2424 7.25599 11.1216 8.48099 11.3565 9.66285C11.5915 10.8447 12.1717 11.9303 13.0238 12.7824C13.8759 13.6345 14.9615 14.2147 16.1433 14.4497C17.3252 14.6846 18.5502 14.5638 19.6634 14.1025C20.7766 13.6412 21.728 12.8601 22.3972 11.858C23.0664 10.8559 23.4233 9.67785 23.4229 8.47285C23.4213 6.8583 22.7792 5.31036 21.6375 4.1687C20.4958 3.02704 18.9479 2.38493 17.3333 2.38327Z" fill="#4AB969"/>
</svg>
